<svg width="183" height="50" viewBox="0 0 183 50" fill="none" xmlns="http://www.w3.org/2000/svg">
<g clip-path="url(#clip0_14_22)">
<path d="M25.0002 50.0004C38.8074 50.0004 50.0004 38.8074 50.0004 25.0002C50.0004 11.193 38.8074 0 25.0002 0C11.193 0 0 11.193 0 25.0002C0 38.8074 11.193 50.0004 25.0002 50.0004Z" fill="#34E0A1"/>
<path d="M40.4415 20.1229L43.4584 16.8408H36.7683C33.4191 14.5529 29.3743 13.2205 25.0002 13.2205C20.6314 13.2205 16.5978 14.5559 13.2542 16.8408H6.54761L9.56416 20.1229C7.715 21.81 6.55586 24.2404 6.55586 26.9386C6.55586 32.0308 10.6843 36.1593 15.7765 36.1593C18.1957 36.1593 20.3992 35.2262 22.0444 33.7011L24.9998 36.919L27.9552 33.7041C29.6004 35.2292 31.8017 36.1593 34.2205 36.1593C39.3127 36.1593 43.4468 32.0308 43.4468 26.9386C43.4494 24.2374 42.2902 21.8074 40.4411 20.1229H40.4415ZM15.7791 33.1787C12.3321 33.1787 9.53903 30.3857 9.53903 26.9386C9.53903 23.4915 12.3325 20.6985 15.7791 20.6985C19.2262 20.6985 22.0193 23.4919 22.0193 26.9386C22.0193 30.3853 19.2258 33.1787 15.7791 33.1787ZM25.0028 26.7571C25.0028 22.6508 22.0166 19.1257 18.0753 17.6201C20.2068 16.729 22.5446 16.2348 25.0002 16.2348C27.4553 16.2348 29.7961 16.729 31.9277 17.6201C27.9894 19.1287 25.0032 22.6508 25.0032 26.7571H25.0028ZM34.2235 33.1787C30.7764 33.1787 27.9834 30.3857 27.9834 26.9386C27.9834 23.4915 30.7768 20.6985 34.2235 20.6985C37.6705 20.6985 40.4636 23.4919 40.4636 26.9386C40.4636 30.3853 37.6702 33.1787 34.2235 33.1787ZM34.2235 23.6648C32.4159 23.6648 30.9523 25.1284 30.9523 26.936C30.9523 28.7431 32.4159 30.2068 34.2235 30.2068C36.0306 30.2068 37.4943 28.7431 37.4943 26.936C37.4943 25.1314 36.0306 23.6648 34.2235 23.6648ZM19.0503 26.9386C19.0503 28.7458 17.5867 30.2094 15.7791 30.2094C13.972 30.2094 12.5083 28.7458 12.5083 26.9386C12.5083 25.1311 13.972 23.6674 15.7791 23.6674C17.5863 23.6648 19.0503 25.1311 19.0503 26.9386Z" fill="black"/>
</g>
<path d="M67.017 19.4545H69.0341L71.9602 26.2443H72.1307L77.2727 19.4545H79.2898L72.6136 28.0057L71.6193 34H69.858L70.8523 28.0057L67.017 19.4545ZM91.9354 26.8409C91.6797 28.3561 91.1896 29.6652 90.4652 30.7685C89.7408 31.867 88.8554 32.7145 87.8089 33.3111C86.7625 33.9029 85.6286 34.1989 84.407 34.1989C83.1475 34.1989 82.075 33.8911 81.1896 33.2756C80.3089 32.6553 79.6792 31.7794 79.3004 30.6477C78.9264 29.5114 78.8672 28.1667 79.1229 26.6136C79.3786 25.0985 79.8686 23.7917 80.593 22.6932C81.3175 21.59 82.2053 20.7424 83.2564 20.1506C84.3075 19.554 85.4486 19.2557 86.6797 19.2557C87.9297 19.2557 88.9927 19.5658 89.8686 20.1861C90.7493 20.8016 91.3767 21.6776 91.7507 22.8139C92.1295 23.9455 92.1911 25.2879 91.9354 26.8409ZM90.2592 26.6136C90.4676 25.3731 90.4368 24.3291 90.1669 23.4815C89.897 22.634 89.4496 21.9924 88.8246 21.5568C88.1996 21.1212 87.4562 20.9034 86.5945 20.9034C85.6948 20.9034 84.8426 21.133 84.0376 21.5923C83.2327 22.0469 82.5438 22.7169 81.9709 23.6023C81.398 24.483 81.0073 25.5625 80.799 26.8409C80.5907 28.0814 80.6214 29.1255 80.8913 29.973C81.1612 30.8205 81.6087 31.4621 82.2337 31.8977C82.8587 32.3333 83.602 32.5511 84.4638 32.5511C85.3634 32.5511 86.2157 32.3239 87.0206 31.8693C87.8255 31.41 88.5144 30.7401 89.0874 29.8594C89.6603 28.974 90.0509 27.892 90.2592 26.6136ZM105.664 19.4545H107.425L105.835 29.0852C105.669 30.0795 105.288 30.9673 104.691 31.7486C104.094 32.5251 103.335 33.1383 102.411 33.5881C101.488 34.0331 100.456 34.2557 99.3146 34.2557C98.1735 34.2557 97.2171 34.0331 96.4453 33.5881C95.6735 33.1383 95.1196 32.5251 94.7834 31.7486C94.4472 30.9673 94.362 30.0795 94.5277 29.0852L96.1186 19.4545H97.88L96.3033 28.9432C96.1896 29.6534 96.2441 30.2855 96.4666 30.8395C96.6892 31.3887 97.0632 31.822 97.5888 32.1392C98.1191 32.4517 98.7891 32.608 99.5987 32.608C100.408 32.608 101.13 32.4517 101.765 32.1392C102.399 31.822 102.915 31.3887 103.313 30.8395C103.716 30.2855 103.974 29.6534 104.087 28.9432L105.664 19.4545ZM108.528 34L110.943 19.4545H115.858C116.994 19.4545 117.894 19.6463 118.556 20.0298C119.224 20.4134 119.676 20.9413 119.913 21.6136C120.154 22.286 120.204 23.053 120.062 23.9148C119.92 24.767 119.617 25.5246 119.153 26.1875C118.694 26.8504 118.069 27.3712 117.278 27.75C116.492 28.1288 115.536 28.3182 114.409 28.3182H110.431L110.716 26.7273H114.636C115.413 26.7273 116.056 26.6136 116.568 26.3864C117.079 26.1591 117.477 25.8348 117.761 25.4134C118.045 24.992 118.234 24.4924 118.329 23.9148C118.424 23.3277 118.398 22.8187 118.251 22.3878C118.109 21.9522 117.818 21.616 117.377 21.3793C116.942 21.1378 116.331 21.017 115.545 21.017H112.449L110.289 34H108.528ZM116.454 27.4659L118.954 34H116.909L114.466 27.4659H116.454ZM127.358 34V19.4545H130.433V31.4645H136.669V34H127.358ZM151.506 26.7273C151.506 28.3134 151.205 29.6629 150.604 30.7756C150.007 31.8883 149.193 32.7382 148.161 33.3253C147.133 33.9077 145.978 34.1989 144.695 34.1989C143.402 34.1989 142.242 33.9053 141.214 33.3182C140.187 32.7311 139.375 31.8812 138.778 30.7685C138.182 29.6558 137.884 28.3087 137.884 26.7273C137.884 25.1411 138.182 23.7917 138.778 22.679C139.375 21.5663 140.187 20.7187 141.214 20.1364C142.242 19.5492 143.402 19.2557 144.695 19.2557C145.978 19.2557 147.133 19.5492 148.161 20.1364C149.193 20.7187 150.007 21.5663 150.604 22.679C151.205 23.7917 151.506 25.1411 151.506 26.7273ZM148.388 26.7273C148.388 25.6998 148.234 24.8333 147.926 24.1278C147.623 23.4223 147.195 22.8873 146.641 22.5227C146.087 22.1581 145.438 21.9759 144.695 21.9759C143.951 21.9759 143.303 22.1581 142.749 22.5227C142.195 22.8873 141.764 23.4223 141.456 24.1278C141.153 24.8333 141.001 25.6998 141.001 26.7273C141.001 27.7547 141.153 28.6212 141.456 29.3267C141.764 30.0322 142.195 30.5672 142.749 30.9318C143.303 31.2964 143.951 31.4787 144.695 31.4787C145.438 31.4787 146.087 31.2964 146.641 30.9318C147.195 30.5672 147.623 30.0322 147.926 29.3267C148.234 28.6212 148.388 27.7547 148.388 26.7273ZM163.429 24.1562C163.329 23.8106 163.19 23.5052 163.01 23.2401C162.83 22.9702 162.609 22.7429 162.349 22.5582C162.093 22.3688 161.8 22.2244 161.468 22.125C161.142 22.0256 160.779 21.9759 160.382 21.9759C159.638 21.9759 158.985 22.1605 158.422 22.5298C157.863 22.8991 157.427 23.4366 157.115 24.142C156.802 24.8428 156.646 25.6998 156.646 26.7131C156.646 27.7263 156.8 28.5881 157.108 29.2983C157.415 30.0085 157.851 30.5507 158.414 30.9247C158.978 31.294 159.643 31.4787 160.41 31.4787C161.106 31.4787 161.7 31.3556 162.193 31.1094C162.69 30.8584 163.069 30.5057 163.329 30.0511C163.594 29.5966 163.727 29.0592 163.727 28.4389L164.352 28.5312H160.602V26.2159H166.689V28.0483C166.689 29.3267 166.419 30.4252 165.879 31.3438C165.339 32.2576 164.596 32.9631 163.649 33.4602C162.702 33.9527 161.618 34.1989 160.396 34.1989C159.032 34.1989 157.834 33.8982 156.802 33.2969C155.77 32.6908 154.965 31.8314 154.387 30.7188C153.815 29.6013 153.528 28.2756 153.528 26.7415C153.528 25.5625 153.699 24.5114 154.039 23.5881C154.385 22.66 154.868 21.8741 155.488 21.2301C156.109 20.5862 156.831 20.0961 157.654 19.7599C158.478 19.4238 159.371 19.2557 160.332 19.2557C161.156 19.2557 161.923 19.3764 162.633 19.6179C163.343 19.8546 163.973 20.1908 164.522 20.6264C165.076 21.062 165.529 21.5805 165.879 22.1818C166.229 22.7784 166.454 23.4366 166.554 24.1562H163.429ZM182.365 26.7273C182.365 28.3134 182.064 29.6629 181.463 30.7756C180.866 31.8883 180.052 32.7382 179.02 33.3253C177.992 33.9077 176.837 34.1989 175.554 34.1989C174.261 34.1989 173.101 33.9053 172.074 33.3182C171.046 32.7311 170.234 31.8812 169.638 30.7685C169.041 29.6558 168.743 28.3087 168.743 26.7273C168.743 25.1411 169.041 23.7917 169.638 22.679C170.234 21.5663 171.046 20.7187 172.074 20.1364C173.101 19.5492 174.261 19.2557 175.554 19.2557C176.837 19.2557 177.992 19.5492 179.02 20.1364C180.052 20.7187 180.866 21.5663 181.463 22.679C182.064 23.7917 182.365 25.1411 182.365 26.7273ZM179.247 26.7273C179.247 25.6998 179.093 24.8333 178.786 24.1278C178.482 23.4223 178.054 22.8873 177.5 22.5227C176.946 22.1581 176.297 21.9759 175.554 21.9759C174.811 21.9759 174.162 22.1581 173.608 22.5227C173.054 22.8873 172.623 23.4223 172.315 24.1278C172.012 24.8333 171.861 25.6998 171.861 26.7273C171.861 27.7547 172.012 28.6212 172.315 29.3267C172.623 30.0322 173.054 30.5672 173.608 30.9318C174.162 31.2964 174.811 31.4787 175.554 31.4787C176.297 31.4787 176.946 31.2964 177.5 30.9318C178.054 30.5672 178.482 30.0322 178.786 29.3267C179.093 28.6212 179.247 27.7547 179.247 26.7273Z" fill="black"/>
<defs>
<clipPath id="clip0_14_22">
<rect width="50" height="50" fill="white"/>
</clipPath>
</defs>
</svg>
